<mxfile host="app.diagrams.net" modified="2023-05-05T13:11:36.812Z" agent="Mozilla/5.0 (Windows NT 10.0; Win64; x64; rv:109.0) Gecko/20100101 Firefox/111.0" etag="-L_ZZQf0ukRiF0BxCiK-" version="21.2.7" type="device">
  <diagram name="Page-1" id="GU8Ssl7aqhGgLjtSVy66">
    <mxGraphModel dx="1290" dy="538" grid="1" gridSize="10" guides="1" tooltips="1" connect="1" arrows="1" fold="1" page="1" pageScale="1" pageWidth="850" pageHeight="1100" math="0" shadow="0">
      <root>
        <mxCell id="0" />
        <mxCell id="1" parent="0" />
        <mxCell id="OSJO1DfyJ7Ro2u0NS1iK-2" value="Size" style="swimlane;fontStyle=0;childLayout=stackLayout;horizontal=1;startSize=30;horizontalStack=0;resizeParent=1;resizeParentMax=0;resizeLast=0;collapsible=1;marginBottom=0;whiteSpace=wrap;html=1;" vertex="1" parent="1">
          <mxGeometry x="50" y="80" width="140" height="120" as="geometry" />
        </mxCell>
        <mxCell id="OSJO1DfyJ7Ro2u0NS1iK-3" value="Small" style="text;strokeColor=none;fillColor=none;align=left;verticalAlign=middle;spacingLeft=4;spacingRight=4;overflow=hidden;points=[[0,0.5],[1,0.5]];portConstraint=eastwest;rotatable=0;whiteSpace=wrap;html=1;" vertex="1" parent="OSJO1DfyJ7Ro2u0NS1iK-2">
          <mxGeometry y="30" width="140" height="30" as="geometry" />
        </mxCell>
        <mxCell id="OSJO1DfyJ7Ro2u0NS1iK-4" value="Medium" style="text;strokeColor=none;fillColor=none;align=left;verticalAlign=middle;spacingLeft=4;spacingRight=4;overflow=hidden;points=[[0,0.5],[1,0.5]];portConstraint=eastwest;rotatable=0;whiteSpace=wrap;html=1;" vertex="1" parent="OSJO1DfyJ7Ro2u0NS1iK-2">
          <mxGeometry y="60" width="140" height="30" as="geometry" />
        </mxCell>
        <mxCell id="OSJO1DfyJ7Ro2u0NS1iK-5" value="Large" style="text;strokeColor=none;fillColor=none;align=left;verticalAlign=middle;spacingLeft=4;spacingRight=4;overflow=hidden;points=[[0,0.5],[1,0.5]];portConstraint=eastwest;rotatable=0;whiteSpace=wrap;html=1;" vertex="1" parent="OSJO1DfyJ7Ro2u0NS1iK-2">
          <mxGeometry y="90" width="140" height="30" as="geometry" />
        </mxCell>
        <mxCell id="OSJO1DfyJ7Ro2u0NS1iK-6" value="&lt;font style=&quot;font-size: 18px;&quot;&gt;&lt;b&gt;RACE&lt;/b&gt;&lt;/font&gt;" style="text;html=1;strokeColor=none;fillColor=none;align=center;verticalAlign=middle;whiteSpace=wrap;rounded=0;" vertex="1" parent="1">
          <mxGeometry x="370" y="30" width="60" height="30" as="geometry" />
        </mxCell>
        <mxCell id="OSJO1DfyJ7Ro2u0NS1iK-8" value="Attitude" style="swimlane;fontStyle=0;childLayout=stackLayout;horizontal=1;startSize=30;horizontalStack=0;resizeParent=1;resizeParentMax=0;resizeLast=0;collapsible=1;marginBottom=0;whiteSpace=wrap;html=1;movable=1;resizable=1;rotatable=1;deletable=1;editable=1;locked=0;connectable=1;" vertex="1" parent="1">
          <mxGeometry x="50" y="230" width="140" height="240" as="geometry" />
        </mxCell>
        <mxCell id="OSJO1DfyJ7Ro2u0NS1iK-9" value="&lt;div&gt;Meek&lt;/div&gt;" style="text;strokeColor=none;fillColor=none;align=left;verticalAlign=middle;spacingLeft=4;spacingRight=4;overflow=hidden;points=[[0,0.5],[1,0.5]];portConstraint=eastwest;rotatable=0;whiteSpace=wrap;html=1;" vertex="1" parent="OSJO1DfyJ7Ro2u0NS1iK-8">
          <mxGeometry y="30" width="140" height="30" as="geometry" />
        </mxCell>
        <mxCell id="OSJO1DfyJ7Ro2u0NS1iK-10" value="&lt;div&gt;Mischievous&lt;/div&gt;" style="text;strokeColor=none;fillColor=none;align=left;verticalAlign=middle;spacingLeft=4;spacingRight=4;overflow=hidden;points=[[0,0.5],[1,0.5]];portConstraint=eastwest;rotatable=0;whiteSpace=wrap;html=1;" vertex="1" parent="OSJO1DfyJ7Ro2u0NS1iK-8">
          <mxGeometry y="60" width="140" height="30" as="geometry" />
        </mxCell>
        <mxCell id="OSJO1DfyJ7Ro2u0NS1iK-11" value="Gentle" style="text;strokeColor=none;fillColor=none;align=left;verticalAlign=middle;spacingLeft=4;spacingRight=4;overflow=hidden;points=[[0,0.5],[1,0.5]];portConstraint=eastwest;rotatable=0;whiteSpace=wrap;html=1;" vertex="1" parent="OSJO1DfyJ7Ro2u0NS1iK-8">
          <mxGeometry y="90" width="140" height="30" as="geometry" />
        </mxCell>
        <mxCell id="OSJO1DfyJ7Ro2u0NS1iK-13" value="Gruff" style="text;strokeColor=none;fillColor=none;align=left;verticalAlign=middle;spacingLeft=4;spacingRight=4;overflow=hidden;points=[[0,0.5],[1,0.5]];portConstraint=eastwest;rotatable=0;whiteSpace=wrap;html=1;" vertex="1" parent="OSJO1DfyJ7Ro2u0NS1iK-8">
          <mxGeometry y="120" width="140" height="30" as="geometry" />
        </mxCell>
        <mxCell id="OSJO1DfyJ7Ro2u0NS1iK-14" value="Snobby" style="text;strokeColor=none;fillColor=none;align=left;verticalAlign=middle;spacingLeft=4;spacingRight=4;overflow=hidden;points=[[0,0.5],[1,0.5]];portConstraint=eastwest;rotatable=0;whiteSpace=wrap;html=1;" vertex="1" parent="OSJO1DfyJ7Ro2u0NS1iK-8">
          <mxGeometry y="150" width="140" height="30" as="geometry" />
        </mxCell>
        <mxCell id="OSJO1DfyJ7Ro2u0NS1iK-108" value="&lt;div&gt;Laid back&lt;/div&gt;" style="text;strokeColor=none;fillColor=none;align=left;verticalAlign=middle;spacingLeft=4;spacingRight=4;overflow=hidden;points=[[0,0.5],[1,0.5]];portConstraint=eastwest;rotatable=0;whiteSpace=wrap;html=1;" vertex="1" parent="OSJO1DfyJ7Ro2u0NS1iK-8">
          <mxGeometry y="180" width="140" height="30" as="geometry" />
        </mxCell>
        <mxCell id="OSJO1DfyJ7Ro2u0NS1iK-109" value="Hardworking" style="text;strokeColor=none;fillColor=none;align=left;verticalAlign=middle;spacingLeft=4;spacingRight=4;overflow=hidden;points=[[0,0.5],[1,0.5]];portConstraint=eastwest;rotatable=0;whiteSpace=wrap;html=1;" vertex="1" parent="OSJO1DfyJ7Ro2u0NS1iK-8">
          <mxGeometry y="210" width="140" height="30" as="geometry" />
        </mxCell>
        <mxCell id="OSJO1DfyJ7Ro2u0NS1iK-16" value="Features" style="swimlane;fontStyle=0;childLayout=stackLayout;horizontal=1;startSize=30;horizontalStack=0;resizeParent=1;resizeParentMax=0;resizeLast=0;collapsible=1;marginBottom=0;whiteSpace=wrap;html=1;" vertex="1" parent="1">
          <mxGeometry x="240" y="80" width="140" height="180" as="geometry" />
        </mxCell>
        <mxCell id="OSJO1DfyJ7Ro2u0NS1iK-17" value="Pointy ears" style="text;strokeColor=none;fillColor=none;align=left;verticalAlign=middle;spacingLeft=4;spacingRight=4;overflow=hidden;points=[[0,0.5],[1,0.5]];portConstraint=eastwest;rotatable=0;whiteSpace=wrap;html=1;" vertex="1" parent="OSJO1DfyJ7Ro2u0NS1iK-16">
          <mxGeometry y="30" width="140" height="30" as="geometry" />
        </mxCell>
        <mxCell id="OSJO1DfyJ7Ro2u0NS1iK-18" value="Floppy ears" style="text;strokeColor=none;fillColor=none;align=left;verticalAlign=middle;spacingLeft=4;spacingRight=4;overflow=hidden;points=[[0,0.5],[1,0.5]];portConstraint=eastwest;rotatable=0;whiteSpace=wrap;html=1;" vertex="1" parent="OSJO1DfyJ7Ro2u0NS1iK-16">
          <mxGeometry y="60" width="140" height="30" as="geometry" />
        </mxCell>
        <mxCell id="OSJO1DfyJ7Ro2u0NS1iK-19" value="&lt;div&gt;Horns&lt;/div&gt;" style="text;strokeColor=none;fillColor=none;align=left;verticalAlign=middle;spacingLeft=4;spacingRight=4;overflow=hidden;points=[[0,0.5],[1,0.5]];portConstraint=eastwest;rotatable=0;whiteSpace=wrap;html=1;" vertex="1" parent="OSJO1DfyJ7Ro2u0NS1iK-16">
          <mxGeometry y="90" width="140" height="30" as="geometry" />
        </mxCell>
        <mxCell id="OSJO1DfyJ7Ro2u0NS1iK-20" value="Tail" style="text;strokeColor=none;fillColor=none;align=left;verticalAlign=middle;spacingLeft=4;spacingRight=4;overflow=hidden;points=[[0,0.5],[1,0.5]];portConstraint=eastwest;rotatable=0;whiteSpace=wrap;html=1;" vertex="1" parent="OSJO1DfyJ7Ro2u0NS1iK-16">
          <mxGeometry y="120" width="140" height="30" as="geometry" />
        </mxCell>
        <mxCell id="OSJO1DfyJ7Ro2u0NS1iK-21" value="Scales" style="text;strokeColor=none;fillColor=none;align=left;verticalAlign=middle;spacingLeft=4;spacingRight=4;overflow=hidden;points=[[0,0.5],[1,0.5]];portConstraint=eastwest;rotatable=0;whiteSpace=wrap;html=1;" vertex="1" parent="OSJO1DfyJ7Ro2u0NS1iK-16">
          <mxGeometry y="150" width="140" height="30" as="geometry" />
        </mxCell>
        <mxCell id="OSJO1DfyJ7Ro2u0NS1iK-22" value="Color" style="swimlane;fontStyle=0;childLayout=stackLayout;horizontal=1;startSize=30;horizontalStack=0;resizeParent=1;resizeParentMax=0;resizeLast=0;collapsible=1;marginBottom=0;whiteSpace=wrap;html=1;" vertex="1" parent="1">
          <mxGeometry x="240" y="290" width="140" height="90" as="geometry" />
        </mxCell>
        <mxCell id="OSJO1DfyJ7Ro2u0NS1iK-23" value="Human skintones" style="text;strokeColor=none;fillColor=none;align=left;verticalAlign=middle;spacingLeft=4;spacingRight=4;overflow=hidden;points=[[0,0.5],[1,0.5]];portConstraint=eastwest;rotatable=0;whiteSpace=wrap;html=1;" vertex="1" parent="OSJO1DfyJ7Ro2u0NS1iK-22">
          <mxGeometry y="30" width="140" height="30" as="geometry" />
        </mxCell>
        <mxCell id="OSJO1DfyJ7Ro2u0NS1iK-24" value="&lt;div&gt;Unnatural colors&lt;/div&gt;" style="text;strokeColor=none;fillColor=none;align=left;verticalAlign=middle;spacingLeft=4;spacingRight=4;overflow=hidden;points=[[0,0.5],[1,0.5]];portConstraint=eastwest;rotatable=0;whiteSpace=wrap;html=1;" vertex="1" parent="OSJO1DfyJ7Ro2u0NS1iK-22">
          <mxGeometry y="60" width="140" height="30" as="geometry" />
        </mxCell>
        <mxCell id="OSJO1DfyJ7Ro2u0NS1iK-26" value="Human skintones" style="swimlane;fontStyle=0;childLayout=stackLayout;horizontal=1;startSize=30;horizontalStack=0;resizeParent=1;resizeParentMax=0;resizeLast=0;collapsible=1;marginBottom=0;whiteSpace=wrap;html=1;" vertex="1" parent="1">
          <mxGeometry x="425" y="80" width="140" height="120" as="geometry" />
        </mxCell>
        <mxCell id="OSJO1DfyJ7Ro2u0NS1iK-27" value="Light" style="text;strokeColor=none;fillColor=none;align=left;verticalAlign=middle;spacingLeft=4;spacingRight=4;overflow=hidden;points=[[0,0.5],[1,0.5]];portConstraint=eastwest;rotatable=0;whiteSpace=wrap;html=1;" vertex="1" parent="OSJO1DfyJ7Ro2u0NS1iK-26">
          <mxGeometry y="30" width="140" height="30" as="geometry" />
        </mxCell>
        <mxCell id="OSJO1DfyJ7Ro2u0NS1iK-28" value="Medium" style="text;strokeColor=none;fillColor=none;align=left;verticalAlign=middle;spacingLeft=4;spacingRight=4;overflow=hidden;points=[[0,0.5],[1,0.5]];portConstraint=eastwest;rotatable=0;whiteSpace=wrap;html=1;" vertex="1" parent="OSJO1DfyJ7Ro2u0NS1iK-26">
          <mxGeometry y="60" width="140" height="30" as="geometry" />
        </mxCell>
        <mxCell id="OSJO1DfyJ7Ro2u0NS1iK-29" value="Dark" style="text;strokeColor=none;fillColor=none;align=left;verticalAlign=middle;spacingLeft=4;spacingRight=4;overflow=hidden;points=[[0,0.5],[1,0.5]];portConstraint=eastwest;rotatable=0;whiteSpace=wrap;html=1;" vertex="1" parent="OSJO1DfyJ7Ro2u0NS1iK-26">
          <mxGeometry y="90" width="140" height="30" as="geometry" />
        </mxCell>
        <mxCell id="OSJO1DfyJ7Ro2u0NS1iK-30" value="Unnatural colors" style="swimlane;fontStyle=0;childLayout=stackLayout;horizontal=1;startSize=30;horizontalStack=0;resizeParent=1;resizeParentMax=0;resizeLast=0;collapsible=1;marginBottom=0;whiteSpace=wrap;html=1;" vertex="1" parent="1">
          <mxGeometry x="425" y="230" width="140" height="210" as="geometry" />
        </mxCell>
        <mxCell id="OSJO1DfyJ7Ro2u0NS1iK-31" value="Red" style="text;strokeColor=none;fillColor=none;align=left;verticalAlign=middle;spacingLeft=4;spacingRight=4;overflow=hidden;points=[[0,0.5],[1,0.5]];portConstraint=eastwest;rotatable=0;whiteSpace=wrap;html=1;" vertex="1" parent="OSJO1DfyJ7Ro2u0NS1iK-30">
          <mxGeometry y="30" width="140" height="30" as="geometry" />
        </mxCell>
        <mxCell id="OSJO1DfyJ7Ro2u0NS1iK-42" value="Purple" style="text;strokeColor=none;fillColor=none;align=left;verticalAlign=middle;spacingLeft=4;spacingRight=4;overflow=hidden;points=[[0,0.5],[1,0.5]];portConstraint=eastwest;rotatable=0;whiteSpace=wrap;html=1;" vertex="1" parent="OSJO1DfyJ7Ro2u0NS1iK-30">
          <mxGeometry y="60" width="140" height="30" as="geometry" />
        </mxCell>
        <mxCell id="OSJO1DfyJ7Ro2u0NS1iK-32" value="&lt;div&gt;Gray&lt;/div&gt;" style="text;strokeColor=none;fillColor=none;align=left;verticalAlign=middle;spacingLeft=4;spacingRight=4;overflow=hidden;points=[[0,0.5],[1,0.5]];portConstraint=eastwest;rotatable=0;whiteSpace=wrap;html=1;" vertex="1" parent="OSJO1DfyJ7Ro2u0NS1iK-30">
          <mxGeometry y="90" width="140" height="30" as="geometry" />
        </mxCell>
        <mxCell id="OSJO1DfyJ7Ro2u0NS1iK-33" value="&lt;div&gt;Indigo&lt;/div&gt;" style="text;strokeColor=none;fillColor=none;align=left;verticalAlign=middle;spacingLeft=4;spacingRight=4;overflow=hidden;points=[[0,0.5],[1,0.5]];portConstraint=eastwest;rotatable=0;whiteSpace=wrap;html=1;" vertex="1" parent="OSJO1DfyJ7Ro2u0NS1iK-30">
          <mxGeometry y="120" width="140" height="30" as="geometry" />
        </mxCell>
        <mxCell id="OSJO1DfyJ7Ro2u0NS1iK-88" value="Green" style="text;strokeColor=none;fillColor=none;align=left;verticalAlign=middle;spacingLeft=4;spacingRight=4;overflow=hidden;points=[[0,0.5],[1,0.5]];portConstraint=eastwest;rotatable=0;whiteSpace=wrap;html=1;" vertex="1" parent="OSJO1DfyJ7Ro2u0NS1iK-30">
          <mxGeometry y="150" width="140" height="30" as="geometry" />
        </mxCell>
        <mxCell id="OSJO1DfyJ7Ro2u0NS1iK-89" value="Yellow" style="text;strokeColor=none;fillColor=none;align=left;verticalAlign=middle;spacingLeft=4;spacingRight=4;overflow=hidden;points=[[0,0.5],[1,0.5]];portConstraint=eastwest;rotatable=0;whiteSpace=wrap;html=1;" vertex="1" parent="OSJO1DfyJ7Ro2u0NS1iK-30">
          <mxGeometry y="180" width="140" height="30" as="geometry" />
        </mxCell>
        <mxCell id="OSJO1DfyJ7Ro2u0NS1iK-38" value="Metallic scales" style="swimlane;fontStyle=0;childLayout=stackLayout;horizontal=1;startSize=30;horizontalStack=0;resizeParent=1;resizeParentMax=0;resizeLast=0;collapsible=1;marginBottom=0;whiteSpace=wrap;html=1;" vertex="1" parent="1">
          <mxGeometry x="610" y="80" width="140" height="180" as="geometry" />
        </mxCell>
        <mxCell id="OSJO1DfyJ7Ro2u0NS1iK-39" value="&lt;div&gt;Gold&lt;/div&gt;" style="text;strokeColor=none;fillColor=none;align=left;verticalAlign=middle;spacingLeft=4;spacingRight=4;overflow=hidden;points=[[0,0.5],[1,0.5]];portConstraint=eastwest;rotatable=0;whiteSpace=wrap;html=1;" vertex="1" parent="OSJO1DfyJ7Ro2u0NS1iK-38">
          <mxGeometry y="30" width="140" height="30" as="geometry" />
        </mxCell>
        <mxCell id="OSJO1DfyJ7Ro2u0NS1iK-40" value="Silver" style="text;strokeColor=none;fillColor=none;align=left;verticalAlign=middle;spacingLeft=4;spacingRight=4;overflow=hidden;points=[[0,0.5],[1,0.5]];portConstraint=eastwest;rotatable=0;whiteSpace=wrap;html=1;" vertex="1" parent="OSJO1DfyJ7Ro2u0NS1iK-38">
          <mxGeometry y="60" width="140" height="30" as="geometry" />
        </mxCell>
        <mxCell id="OSJO1DfyJ7Ro2u0NS1iK-41" value="Brass" style="text;strokeColor=none;fillColor=none;align=left;verticalAlign=middle;spacingLeft=4;spacingRight=4;overflow=hidden;points=[[0,0.5],[1,0.5]];portConstraint=eastwest;rotatable=0;whiteSpace=wrap;html=1;" vertex="1" parent="OSJO1DfyJ7Ro2u0NS1iK-38">
          <mxGeometry y="90" width="140" height="30" as="geometry" />
        </mxCell>
        <mxCell id="OSJO1DfyJ7Ro2u0NS1iK-43" value="Copper" style="text;strokeColor=none;fillColor=none;align=left;verticalAlign=middle;spacingLeft=4;spacingRight=4;overflow=hidden;points=[[0,0.5],[1,0.5]];portConstraint=eastwest;rotatable=0;whiteSpace=wrap;html=1;" vertex="1" parent="OSJO1DfyJ7Ro2u0NS1iK-38">
          <mxGeometry y="120" width="140" height="30" as="geometry" />
        </mxCell>
        <mxCell id="OSJO1DfyJ7Ro2u0NS1iK-44" value="Bronze" style="text;strokeColor=none;fillColor=none;align=left;verticalAlign=middle;spacingLeft=4;spacingRight=4;overflow=hidden;points=[[0,0.5],[1,0.5]];portConstraint=eastwest;rotatable=0;whiteSpace=wrap;html=1;" vertex="1" parent="OSJO1DfyJ7Ro2u0NS1iK-38">
          <mxGeometry y="150" width="140" height="30" as="geometry" />
        </mxCell>
        <mxCell id="OSJO1DfyJ7Ro2u0NS1iK-45" value="Chromatic scales" style="swimlane;fontStyle=0;childLayout=stackLayout;horizontal=1;startSize=30;horizontalStack=0;resizeParent=1;resizeParentMax=0;resizeLast=0;collapsible=1;marginBottom=0;whiteSpace=wrap;html=1;" vertex="1" parent="1">
          <mxGeometry x="610" y="280" width="140" height="180" as="geometry" />
        </mxCell>
        <mxCell id="OSJO1DfyJ7Ro2u0NS1iK-46" value="Red&lt;span style=&quot;white-space: pre;&quot;&gt;	&lt;/span&gt;" style="text;strokeColor=none;fillColor=none;align=left;verticalAlign=middle;spacingLeft=4;spacingRight=4;overflow=hidden;points=[[0,0.5],[1,0.5]];portConstraint=eastwest;rotatable=0;whiteSpace=wrap;html=1;" vertex="1" parent="OSJO1DfyJ7Ro2u0NS1iK-45">
          <mxGeometry y="30" width="140" height="30" as="geometry" />
        </mxCell>
        <mxCell id="OSJO1DfyJ7Ro2u0NS1iK-47" value="Green" style="text;strokeColor=none;fillColor=none;align=left;verticalAlign=middle;spacingLeft=4;spacingRight=4;overflow=hidden;points=[[0,0.5],[1,0.5]];portConstraint=eastwest;rotatable=0;whiteSpace=wrap;html=1;" vertex="1" parent="OSJO1DfyJ7Ro2u0NS1iK-45">
          <mxGeometry y="60" width="140" height="30" as="geometry" />
        </mxCell>
        <mxCell id="OSJO1DfyJ7Ro2u0NS1iK-48" value="Blue" style="text;strokeColor=none;fillColor=none;align=left;verticalAlign=middle;spacingLeft=4;spacingRight=4;overflow=hidden;points=[[0,0.5],[1,0.5]];portConstraint=eastwest;rotatable=0;whiteSpace=wrap;html=1;" vertex="1" parent="OSJO1DfyJ7Ro2u0NS1iK-45">
          <mxGeometry y="90" width="140" height="30" as="geometry" />
        </mxCell>
        <mxCell id="OSJO1DfyJ7Ro2u0NS1iK-49" value="White" style="text;strokeColor=none;fillColor=none;align=left;verticalAlign=middle;spacingLeft=4;spacingRight=4;overflow=hidden;points=[[0,0.5],[1,0.5]];portConstraint=eastwest;rotatable=0;whiteSpace=wrap;html=1;" vertex="1" parent="OSJO1DfyJ7Ro2u0NS1iK-45">
          <mxGeometry y="120" width="140" height="30" as="geometry" />
        </mxCell>
        <mxCell id="OSJO1DfyJ7Ro2u0NS1iK-50" value="Black" style="text;strokeColor=none;fillColor=none;align=left;verticalAlign=middle;spacingLeft=4;spacingRight=4;overflow=hidden;points=[[0,0.5],[1,0.5]];portConstraint=eastwest;rotatable=0;whiteSpace=wrap;html=1;" vertex="1" parent="OSJO1DfyJ7Ro2u0NS1iK-45">
          <mxGeometry y="150" width="140" height="30" as="geometry" />
        </mxCell>
        <mxCell id="OSJO1DfyJ7Ro2u0NS1iK-61" value="Physique" style="swimlane;fontStyle=0;childLayout=stackLayout;horizontal=1;startSize=30;horizontalStack=0;resizeParent=1;resizeParentMax=0;resizeLast=0;collapsible=1;marginBottom=0;whiteSpace=wrap;html=1;" vertex="1" parent="1">
          <mxGeometry x="240" y="410" width="140" height="150" as="geometry" />
        </mxCell>
        <mxCell id="OSJO1DfyJ7Ro2u0NS1iK-62" value="Lean" style="text;strokeColor=none;fillColor=none;align=left;verticalAlign=middle;spacingLeft=4;spacingRight=4;overflow=hidden;points=[[0,0.5],[1,0.5]];portConstraint=eastwest;rotatable=0;whiteSpace=wrap;html=1;" vertex="1" parent="OSJO1DfyJ7Ro2u0NS1iK-61">
          <mxGeometry y="30" width="140" height="30" as="geometry" />
        </mxCell>
        <mxCell id="OSJO1DfyJ7Ro2u0NS1iK-63" value="Stocky&lt;span style=&quot;white-space: pre;&quot;&gt;	&lt;/span&gt;" style="text;strokeColor=none;fillColor=none;align=left;verticalAlign=middle;spacingLeft=4;spacingRight=4;overflow=hidden;points=[[0,0.5],[1,0.5]];portConstraint=eastwest;rotatable=0;whiteSpace=wrap;html=1;" vertex="1" parent="OSJO1DfyJ7Ro2u0NS1iK-61">
          <mxGeometry y="60" width="140" height="30" as="geometry" />
        </mxCell>
        <mxCell id="OSJO1DfyJ7Ro2u0NS1iK-64" value="Slight" style="text;strokeColor=none;fillColor=none;align=left;verticalAlign=middle;spacingLeft=4;spacingRight=4;overflow=hidden;points=[[0,0.5],[1,0.5]];portConstraint=eastwest;rotatable=0;whiteSpace=wrap;html=1;" vertex="1" parent="OSJO1DfyJ7Ro2u0NS1iK-61">
          <mxGeometry y="90" width="140" height="30" as="geometry" />
        </mxCell>
        <mxCell id="OSJO1DfyJ7Ro2u0NS1iK-65" value="Broad" style="text;strokeColor=none;fillColor=none;align=left;verticalAlign=middle;spacingLeft=4;spacingRight=4;overflow=hidden;points=[[0,0.5],[1,0.5]];portConstraint=eastwest;rotatable=0;whiteSpace=wrap;html=1;fontStyle=0" vertex="1" parent="OSJO1DfyJ7Ro2u0NS1iK-61">
          <mxGeometry y="120" width="140" height="30" as="geometry" />
        </mxCell>
        <mxCell id="OSJO1DfyJ7Ro2u0NS1iK-147" value="" style="group" vertex="1" connectable="0" parent="1">
          <mxGeometry x="590" y="715" width="1020" height="425" as="geometry" />
        </mxCell>
        <mxCell id="OSJO1DfyJ7Ro2u0NS1iK-104" value="short" style="rounded=1;whiteSpace=wrap;html=1;" vertex="1" parent="OSJO1DfyJ7Ro2u0NS1iK-147">
          <mxGeometry y="265" width="80" height="40" as="geometry" />
        </mxCell>
        <mxCell id="OSJO1DfyJ7Ro2u0NS1iK-107" value="meek, mischevious" style="rounded=1;whiteSpace=wrap;html=1;" vertex="1" parent="OSJO1DfyJ7Ro2u0NS1iK-147">
          <mxGeometry x="120.5" y="145" width="119" height="40" as="geometry" />
        </mxCell>
        <mxCell id="OSJO1DfyJ7Ro2u0NS1iK-111" value="hardworking" style="rounded=1;whiteSpace=wrap;html=1;" vertex="1" parent="OSJO1DfyJ7Ro2u0NS1iK-147">
          <mxGeometry x="120.5" y="225" width="119" height="40" as="geometry" />
        </mxCell>
        <mxCell id="OSJO1DfyJ7Ro2u0NS1iK-113" value="dwarf, gnome" style="rounded=1;whiteSpace=wrap;html=1;arcSize=0;" vertex="1" parent="OSJO1DfyJ7Ro2u0NS1iK-147">
          <mxGeometry x="280" y="225" width="119" height="40" as="geometry" />
        </mxCell>
        <mxCell id="OSJO1DfyJ7Ro2u0NS1iK-114" value="halfling, goblin" style="rounded=1;whiteSpace=wrap;html=1;arcSize=0;" vertex="1" parent="OSJO1DfyJ7Ro2u0NS1iK-147">
          <mxGeometry x="280" y="145" width="120" height="40" as="geometry" />
        </mxCell>
        <mxCell id="OSJO1DfyJ7Ro2u0NS1iK-115" value="halfling" style="rounded=1;whiteSpace=wrap;html=1;arcSize=50;" vertex="1" parent="OSJO1DfyJ7Ro2u0NS1iK-147">
          <mxGeometry x="280" y="305" width="119" height="40" as="geometry" />
        </mxCell>
        <mxCell id="OSJO1DfyJ7Ro2u0NS1iK-116" value="laid back, gentle" style="rounded=1;whiteSpace=wrap;html=1;" vertex="1" parent="OSJO1DfyJ7Ro2u0NS1iK-147">
          <mxGeometry x="120" y="305" width="119" height="40" as="geometry" />
        </mxCell>
        <mxCell id="OSJO1DfyJ7Ro2u0NS1iK-117" value="gruff, snobby" style="rounded=1;whiteSpace=wrap;html=1;" vertex="1" parent="OSJO1DfyJ7Ro2u0NS1iK-147">
          <mxGeometry x="120" y="385" width="119" height="40" as="geometry" />
        </mxCell>
        <mxCell id="OSJO1DfyJ7Ro2u0NS1iK-118" value="dwarf" style="rounded=1;whiteSpace=wrap;html=1;arcSize=50;" vertex="1" parent="OSJO1DfyJ7Ro2u0NS1iK-147">
          <mxGeometry x="281" y="385" width="119" height="40" as="geometry" />
        </mxCell>
        <mxCell id="OSJO1DfyJ7Ro2u0NS1iK-121" value="unnatural color" style="rounded=1;whiteSpace=wrap;html=1;" vertex="1" parent="OSJO1DfyJ7Ro2u0NS1iK-147">
          <mxGeometry x="460" y="5" width="120" height="40" as="geometry" />
        </mxCell>
        <mxCell id="OSJO1DfyJ7Ro2u0NS1iK-122" value="" style="endArrow=none;html=1;rounded=0;" edge="1" parent="OSJO1DfyJ7Ro2u0NS1iK-147">
          <mxGeometry width="50" height="50" relative="1" as="geometry">
            <mxPoint x="410" y="145" as="sourcePoint" />
            <mxPoint x="450" y="65" as="targetPoint" />
          </mxGeometry>
        </mxCell>
        <mxCell id="OSJO1DfyJ7Ro2u0NS1iK-123" value="goblin" style="rounded=1;whiteSpace=wrap;html=1;arcSize=50;" vertex="1" parent="OSJO1DfyJ7Ro2u0NS1iK-147">
          <mxGeometry x="620" y="5" width="80" height="40" as="geometry" />
        </mxCell>
        <mxCell id="OSJO1DfyJ7Ro2u0NS1iK-127" value="natural color" style="rounded=1;whiteSpace=wrap;html=1;" vertex="1" parent="OSJO1DfyJ7Ro2u0NS1iK-147">
          <mxGeometry x="460" y="85" width="120" height="40" as="geometry" />
        </mxCell>
        <mxCell id="OSJO1DfyJ7Ro2u0NS1iK-128" value="halfling" style="rounded=1;whiteSpace=wrap;html=1;arcSize=50;" vertex="1" parent="OSJO1DfyJ7Ro2u0NS1iK-147">
          <mxGeometry x="620" y="85" width="80" height="40" as="geometry" />
        </mxCell>
        <mxCell id="OSJO1DfyJ7Ro2u0NS1iK-132" value="yes" style="edgeStyle=orthogonalEdgeStyle;rounded=0;orthogonalLoop=1;jettySize=auto;html=1;" edge="1" parent="OSJO1DfyJ7Ro2u0NS1iK-147" source="OSJO1DfyJ7Ro2u0NS1iK-131">
          <mxGeometry relative="1" as="geometry">
            <mxPoint x="560" y="195" as="targetPoint" />
          </mxGeometry>
        </mxCell>
        <mxCell id="OSJO1DfyJ7Ro2u0NS1iK-133" style="edgeStyle=orthogonalEdgeStyle;rounded=0;orthogonalLoop=1;jettySize=auto;html=1;" edge="1" parent="OSJO1DfyJ7Ro2u0NS1iK-147" source="OSJO1DfyJ7Ro2u0NS1iK-131">
          <mxGeometry relative="1" as="geometry">
            <mxPoint x="560" y="295" as="targetPoint" />
          </mxGeometry>
        </mxCell>
        <mxCell id="OSJO1DfyJ7Ro2u0NS1iK-135" value="no" style="edgeLabel;html=1;align=center;verticalAlign=middle;resizable=0;points=[];" vertex="1" connectable="0" parent="OSJO1DfyJ7Ro2u0NS1iK-133">
          <mxGeometry x="-0.0303" y="1" relative="1" as="geometry">
            <mxPoint as="offset" />
          </mxGeometry>
        </mxCell>
        <mxCell id="OSJO1DfyJ7Ro2u0NS1iK-131" value="pointy ears" style="rhombus;whiteSpace=wrap;html=1;" vertex="1" parent="OSJO1DfyJ7Ro2u0NS1iK-147">
          <mxGeometry x="440" y="215" width="150" height="60" as="geometry" />
        </mxCell>
        <mxCell id="OSJO1DfyJ7Ro2u0NS1iK-134" value="gnome" style="rounded=1;whiteSpace=wrap;html=1;arcSize=50;" vertex="1" parent="OSJO1DfyJ7Ro2u0NS1iK-147">
          <mxGeometry x="560" y="175" width="80" height="40" as="geometry" />
        </mxCell>
        <mxCell id="OSJO1DfyJ7Ro2u0NS1iK-137" value="dwarf" style="rounded=1;whiteSpace=wrap;html=1;" vertex="1" parent="OSJO1DfyJ7Ro2u0NS1iK-147">
          <mxGeometry x="560" y="275" width="80" height="40" as="geometry" />
        </mxCell>
        <mxCell id="OSJO1DfyJ7Ro2u0NS1iK-138" value="yellow/green" style="ellipse;whiteSpace=wrap;html=1;" vertex="1" parent="OSJO1DfyJ7Ro2u0NS1iK-147">
          <mxGeometry x="720" width="80" height="50" as="geometry" />
        </mxCell>
        <mxCell id="OSJO1DfyJ7Ro2u0NS1iK-139" value="unnatural color" style="rounded=1;whiteSpace=wrap;html=1;" vertex="1" parent="OSJO1DfyJ7Ro2u0NS1iK-147">
          <mxGeometry x="670" y="245" width="120" height="40" as="geometry" />
        </mxCell>
        <mxCell id="OSJO1DfyJ7Ro2u0NS1iK-140" value="natural color" style="rounded=1;whiteSpace=wrap;html=1;" vertex="1" parent="OSJO1DfyJ7Ro2u0NS1iK-147">
          <mxGeometry x="670" y="305" width="120" height="40" as="geometry" />
        </mxCell>
        <mxCell id="OSJO1DfyJ7Ro2u0NS1iK-142" value="nautral color" style="ellipse;whiteSpace=wrap;html=1;" vertex="1" parent="OSJO1DfyJ7Ro2u0NS1iK-147">
          <mxGeometry x="670" y="170" width="80" height="50" as="geometry" />
        </mxCell>
        <mxCell id="OSJO1DfyJ7Ro2u0NS1iK-143" value="indigo/gray" style="ellipse;whiteSpace=wrap;html=1;" vertex="1" parent="OSJO1DfyJ7Ro2u0NS1iK-147">
          <mxGeometry x="940" y="240" width="80" height="50" as="geometry" />
        </mxCell>
        <mxCell id="OSJO1DfyJ7Ro2u0NS1iK-144" value="duergar" style="rounded=1;whiteSpace=wrap;html=1;arcSize=50;" vertex="1" parent="OSJO1DfyJ7Ro2u0NS1iK-147">
          <mxGeometry x="830" y="245" width="80" height="40" as="geometry" />
        </mxCell>
        <mxCell id="OSJO1DfyJ7Ro2u0NS1iK-221" value="dwarf" style="rounded=1;whiteSpace=wrap;html=1;arcSize=50;" vertex="1" parent="OSJO1DfyJ7Ro2u0NS1iK-147">
          <mxGeometry x="830" y="305" width="80" height="40" as="geometry" />
        </mxCell>
        <mxCell id="OSJO1DfyJ7Ro2u0NS1iK-222" value="" style="group" vertex="1" connectable="0" parent="1">
          <mxGeometry x="590" y="1229" width="1010" height="411" as="geometry" />
        </mxCell>
        <mxCell id="OSJO1DfyJ7Ro2u0NS1iK-149" value="medium" style="rounded=1;whiteSpace=wrap;html=1;" vertex="1" parent="OSJO1DfyJ7Ro2u0NS1iK-222">
          <mxGeometry y="221" width="80" height="40" as="geometry" />
        </mxCell>
        <mxCell id="OSJO1DfyJ7Ro2u0NS1iK-150" value="unnatural color" style="rounded=1;whiteSpace=wrap;html=1;" vertex="1" parent="OSJO1DfyJ7Ro2u0NS1iK-222">
          <mxGeometry x="120" y="181" width="120" height="40" as="geometry" />
        </mxCell>
        <mxCell id="OSJO1DfyJ7Ro2u0NS1iK-151" value="natural color" style="rounded=1;whiteSpace=wrap;html=1;" vertex="1" parent="OSJO1DfyJ7Ro2u0NS1iK-222">
          <mxGeometry x="120" y="261" width="120" height="40" as="geometry" />
        </mxCell>
        <mxCell id="OSJO1DfyJ7Ro2u0NS1iK-152" value="tiefling, drow, half-elf, half-orc" style="rounded=1;whiteSpace=wrap;html=1;arcSize=0;" vertex="1" parent="OSJO1DfyJ7Ro2u0NS1iK-222">
          <mxGeometry x="280" y="181" width="120" height="40" as="geometry" />
        </mxCell>
        <mxCell id="OSJO1DfyJ7Ro2u0NS1iK-153" value="&lt;div&gt;human, elf, half-elf, aasimar&lt;/div&gt;" style="rounded=1;whiteSpace=wrap;html=1;arcSize=0;" vertex="1" parent="OSJO1DfyJ7Ro2u0NS1iK-222">
          <mxGeometry x="280" y="261" width="120" height="40" as="geometry" />
        </mxCell>
        <mxCell id="OSJO1DfyJ7Ro2u0NS1iK-155" value="" style="endArrow=none;html=1;rounded=0;" edge="1" parent="OSJO1DfyJ7Ro2u0NS1iK-222">
          <mxGeometry width="50" height="50" relative="1" as="geometry">
            <mxPoint x="410" y="201" as="sourcePoint" />
            <mxPoint x="450" y="151" as="targetPoint" />
          </mxGeometry>
        </mxCell>
        <mxCell id="OSJO1DfyJ7Ro2u0NS1iK-187" value="stocky, broad" style="rounded=1;whiteSpace=wrap;html=1;" vertex="1" parent="OSJO1DfyJ7Ro2u0NS1iK-222">
          <mxGeometry x="460" y="125" width="80" height="40" as="geometry" />
        </mxCell>
        <mxCell id="OSJO1DfyJ7Ro2u0NS1iK-188" value="lean" style="rounded=1;whiteSpace=wrap;html=1;" vertex="1" parent="OSJO1DfyJ7Ro2u0NS1iK-222">
          <mxGeometry x="460" y="70" width="80" height="40" as="geometry" />
        </mxCell>
        <mxCell id="OSJO1DfyJ7Ro2u0NS1iK-189" value="slight" style="rounded=1;whiteSpace=wrap;html=1;" vertex="1" parent="OSJO1DfyJ7Ro2u0NS1iK-222">
          <mxGeometry x="460" y="180" width="80" height="40" as="geometry" />
        </mxCell>
        <mxCell id="OSJO1DfyJ7Ro2u0NS1iK-190" value="&lt;div&gt;tiefling, half-elf&lt;br&gt;&lt;/div&gt;" style="rounded=1;whiteSpace=wrap;html=1;arcSize=0;" vertex="1" parent="OSJO1DfyJ7Ro2u0NS1iK-222">
          <mxGeometry x="590" y="70" width="109" height="40" as="geometry" />
        </mxCell>
        <mxCell id="OSJO1DfyJ7Ro2u0NS1iK-191" value="half-orc" style="rounded=1;whiteSpace=wrap;html=1;arcSize=50;" vertex="1" parent="OSJO1DfyJ7Ro2u0NS1iK-222">
          <mxGeometry x="590" y="125" width="109" height="40" as="geometry" />
        </mxCell>
        <mxCell id="OSJO1DfyJ7Ro2u0NS1iK-192" value="drow" style="rounded=1;whiteSpace=wrap;html=1;fontStyle=0;arcSize=50;" vertex="1" parent="OSJO1DfyJ7Ro2u0NS1iK-222">
          <mxGeometry x="590" y="180" width="109" height="40" as="geometry" />
        </mxCell>
        <mxCell id="OSJO1DfyJ7Ro2u0NS1iK-193" value="" style="endArrow=none;html=1;rounded=0;" edge="1" parent="OSJO1DfyJ7Ro2u0NS1iK-222">
          <mxGeometry width="50" height="50" relative="1" as="geometry">
            <mxPoint x="710" y="90" as="sourcePoint" />
            <mxPoint x="740" y="60" as="targetPoint" />
          </mxGeometry>
        </mxCell>
        <mxCell id="OSJO1DfyJ7Ro2u0NS1iK-194" value="red, lavander" style="rounded=1;whiteSpace=wrap;html=1;" vertex="1" parent="OSJO1DfyJ7Ro2u0NS1iK-222">
          <mxGeometry x="750" width="120" height="40" as="geometry" />
        </mxCell>
        <mxCell id="OSJO1DfyJ7Ro2u0NS1iK-195" value="tiefling" style="rounded=1;whiteSpace=wrap;html=1;arcSize=50;" vertex="1" parent="OSJO1DfyJ7Ro2u0NS1iK-222">
          <mxGeometry x="910" width="100" height="40" as="geometry" />
        </mxCell>
        <mxCell id="OSJO1DfyJ7Ro2u0NS1iK-196" value="indigo, gray" style="rounded=1;whiteSpace=wrap;html=1;" vertex="1" parent="OSJO1DfyJ7Ro2u0NS1iK-222">
          <mxGeometry x="750" y="70" width="120" height="40" as="geometry" />
        </mxCell>
        <mxCell id="OSJO1DfyJ7Ro2u0NS1iK-197" value="half-drow" style="rounded=1;whiteSpace=wrap;html=1;arcSize=50;" vertex="1" parent="OSJO1DfyJ7Ro2u0NS1iK-222">
          <mxGeometry x="910" y="70" width="100" height="40" as="geometry" />
        </mxCell>
        <mxCell id="OSJO1DfyJ7Ro2u0NS1iK-203" value="broad" style="rounded=1;whiteSpace=wrap;html=1;" vertex="1" parent="OSJO1DfyJ7Ro2u0NS1iK-222">
          <mxGeometry x="460" y="316" width="80" height="40" as="geometry" />
        </mxCell>
        <mxCell id="OSJO1DfyJ7Ro2u0NS1iK-204" value="lean" style="rounded=1;whiteSpace=wrap;html=1;" vertex="1" parent="OSJO1DfyJ7Ro2u0NS1iK-222">
          <mxGeometry x="460" y="261" width="80" height="40" as="geometry" />
        </mxCell>
        <mxCell id="OSJO1DfyJ7Ro2u0NS1iK-205" value="slight" style="rounded=1;whiteSpace=wrap;html=1;" vertex="1" parent="OSJO1DfyJ7Ro2u0NS1iK-222">
          <mxGeometry x="460" y="371" width="80" height="40" as="geometry" />
        </mxCell>
        <mxCell id="OSJO1DfyJ7Ro2u0NS1iK-206" value="&lt;div&gt;human, half-elf&lt;br&gt;&lt;/div&gt;" style="rounded=1;whiteSpace=wrap;html=1;arcSize=0;" vertex="1" parent="OSJO1DfyJ7Ro2u0NS1iK-222">
          <mxGeometry x="590" y="261" width="109" height="40" as="geometry" />
        </mxCell>
        <mxCell id="OSJO1DfyJ7Ro2u0NS1iK-207" value="aasimar" style="rounded=1;whiteSpace=wrap;html=1;arcSize=50;" vertex="1" parent="OSJO1DfyJ7Ro2u0NS1iK-222">
          <mxGeometry x="590" y="316" width="109" height="40" as="geometry" />
        </mxCell>
        <mxCell id="OSJO1DfyJ7Ro2u0NS1iK-208" value="elf" style="rounded=1;whiteSpace=wrap;html=1;fontStyle=0;arcSize=50;" vertex="1" parent="OSJO1DfyJ7Ro2u0NS1iK-222">
          <mxGeometry x="590" y="371" width="109" height="40" as="geometry" />
        </mxCell>
        <mxCell id="OSJO1DfyJ7Ro2u0NS1iK-209" value="" style="endArrow=none;html=1;rounded=0;" edge="1" parent="OSJO1DfyJ7Ro2u0NS1iK-222">
          <mxGeometry width="50" height="50" relative="1" as="geometry">
            <mxPoint x="410" y="281" as="sourcePoint" />
            <mxPoint x="450" y="341" as="targetPoint" />
          </mxGeometry>
        </mxCell>
        <mxCell id="OSJO1DfyJ7Ro2u0NS1iK-215" value="yes" style="edgeStyle=orthogonalEdgeStyle;rounded=0;orthogonalLoop=1;jettySize=auto;html=1;" edge="1" parent="OSJO1DfyJ7Ro2u0NS1iK-222" source="OSJO1DfyJ7Ro2u0NS1iK-218">
          <mxGeometry relative="1" as="geometry">
            <mxPoint x="840" y="231" as="targetPoint" />
          </mxGeometry>
        </mxCell>
        <mxCell id="OSJO1DfyJ7Ro2u0NS1iK-216" style="edgeStyle=orthogonalEdgeStyle;rounded=0;orthogonalLoop=1;jettySize=auto;html=1;" edge="1" parent="OSJO1DfyJ7Ro2u0NS1iK-222" source="OSJO1DfyJ7Ro2u0NS1iK-218">
          <mxGeometry relative="1" as="geometry">
            <mxPoint x="840" y="331" as="targetPoint" />
          </mxGeometry>
        </mxCell>
        <mxCell id="OSJO1DfyJ7Ro2u0NS1iK-217" value="no" style="edgeLabel;html=1;align=center;verticalAlign=middle;resizable=0;points=[];" vertex="1" connectable="0" parent="OSJO1DfyJ7Ro2u0NS1iK-216">
          <mxGeometry x="-0.0303" y="1" relative="1" as="geometry">
            <mxPoint as="offset" />
          </mxGeometry>
        </mxCell>
        <mxCell id="OSJO1DfyJ7Ro2u0NS1iK-218" value="pointy ears" style="rhombus;whiteSpace=wrap;html=1;" vertex="1" parent="OSJO1DfyJ7Ro2u0NS1iK-222">
          <mxGeometry x="720" y="251" width="150" height="60" as="geometry" />
        </mxCell>
        <mxCell id="OSJO1DfyJ7Ro2u0NS1iK-219" value="half-elf" style="rounded=1;whiteSpace=wrap;html=1;arcSize=50;" vertex="1" parent="OSJO1DfyJ7Ro2u0NS1iK-222">
          <mxGeometry x="840" y="211" width="80" height="40" as="geometry" />
        </mxCell>
        <mxCell id="OSJO1DfyJ7Ro2u0NS1iK-220" value="human" style="rounded=1;whiteSpace=wrap;html=1;arcSize=50;" vertex="1" parent="OSJO1DfyJ7Ro2u0NS1iK-222">
          <mxGeometry x="840" y="311" width="80" height="40" as="geometry" />
        </mxCell>
        <mxCell id="OSJO1DfyJ7Ro2u0NS1iK-268" value="" style="group" vertex="1" connectable="0" parent="1">
          <mxGeometry x="600" y="1710" width="820" height="280" as="geometry" />
        </mxCell>
        <mxCell id="OSJO1DfyJ7Ro2u0NS1iK-223" value="tall" style="rounded=1;whiteSpace=wrap;html=1;" vertex="1" parent="OSJO1DfyJ7Ro2u0NS1iK-268">
          <mxGeometry y="120" width="80" height="40" as="geometry" />
        </mxCell>
        <mxCell id="OSJO1DfyJ7Ro2u0NS1iK-224" value="broad" style="rounded=1;whiteSpace=wrap;html=1;" vertex="1" parent="OSJO1DfyJ7Ro2u0NS1iK-268">
          <mxGeometry x="270" y="50" width="80" height="40" as="geometry" />
        </mxCell>
        <mxCell id="OSJO1DfyJ7Ro2u0NS1iK-225" value="stocky, lean" style="rounded=1;whiteSpace=wrap;html=1;" vertex="1" parent="OSJO1DfyJ7Ro2u0NS1iK-268">
          <mxGeometry x="270" width="80" height="40" as="geometry" />
        </mxCell>
        <mxCell id="OSJO1DfyJ7Ro2u0NS1iK-247" value="snobby" style="rounded=1;whiteSpace=wrap;html=1;" vertex="1" parent="OSJO1DfyJ7Ro2u0NS1iK-268">
          <mxGeometry x="120" y="179.5" width="110" height="40" as="geometry" />
        </mxCell>
        <mxCell id="OSJO1DfyJ7Ro2u0NS1iK-248" value="gruff" style="rounded=1;whiteSpace=wrap;html=1;" vertex="1" parent="OSJO1DfyJ7Ro2u0NS1iK-268">
          <mxGeometry x="120" y="60" width="110" height="40" as="geometry" />
        </mxCell>
        <mxCell id="OSJO1DfyJ7Ro2u0NS1iK-249" value="gentle, laid back" style="rounded=1;whiteSpace=wrap;html=1;" vertex="1" parent="OSJO1DfyJ7Ro2u0NS1iK-268">
          <mxGeometry x="120" y="120" width="110" height="40" as="geometry" />
        </mxCell>
        <mxCell id="OSJO1DfyJ7Ro2u0NS1iK-250" value="firbolg" style="rounded=1;whiteSpace=wrap;html=1;arcSize=50;" vertex="1" parent="OSJO1DfyJ7Ro2u0NS1iK-268">
          <mxGeometry x="270" y="120" width="80" height="40" as="geometry" />
        </mxCell>
        <mxCell id="OSJO1DfyJ7Ro2u0NS1iK-251" value="green, blue, brown, grey" style="ellipse;whiteSpace=wrap;html=1;" vertex="1" parent="OSJO1DfyJ7Ro2u0NS1iK-268">
          <mxGeometry x="380" y="115" width="180" height="50" as="geometry" />
        </mxCell>
        <mxCell id="OSJO1DfyJ7Ro2u0NS1iK-252" value="" style="endArrow=none;html=1;rounded=0;" edge="1" parent="OSJO1DfyJ7Ro2u0NS1iK-268">
          <mxGeometry width="50" height="50" relative="1" as="geometry">
            <mxPoint x="240" y="80" as="sourcePoint" />
            <mxPoint x="260" y="50" as="targetPoint" />
          </mxGeometry>
        </mxCell>
        <mxCell id="OSJO1DfyJ7Ro2u0NS1iK-253" value="goliath" style="rounded=1;whiteSpace=wrap;html=1;arcSize=50;" vertex="1" parent="OSJO1DfyJ7Ro2u0NS1iK-268">
          <mxGeometry x="380" y="50" width="80" height="40" as="geometry" />
        </mxCell>
        <mxCell id="OSJO1DfyJ7Ro2u0NS1iK-254" value="dragonborn" style="rounded=1;whiteSpace=wrap;html=1;arcSize=50;" vertex="1" parent="OSJO1DfyJ7Ro2u0NS1iK-268">
          <mxGeometry x="380" width="80" height="40" as="geometry" />
        </mxCell>
        <mxCell id="OSJO1DfyJ7Ro2u0NS1iK-256" value="chromatic scales" style="rounded=1;whiteSpace=wrap;html=1;arcSize=50;" vertex="1" parent="OSJO1DfyJ7Ro2u0NS1iK-268">
          <mxGeometry x="480" width="120" height="40" as="geometry" />
        </mxCell>
        <mxCell id="OSJO1DfyJ7Ro2u0NS1iK-258" value="red, green, blue, white, black" style="ellipse;whiteSpace=wrap;html=1;" vertex="1" parent="OSJO1DfyJ7Ro2u0NS1iK-268">
          <mxGeometry x="620" y="-5" width="200" height="50" as="geometry" />
        </mxCell>
        <mxCell id="OSJO1DfyJ7Ro2u0NS1iK-262" value="hardworking" style="rounded=1;whiteSpace=wrap;html=1;" vertex="1" parent="OSJO1DfyJ7Ro2u0NS1iK-268">
          <mxGeometry x="120" y="240" width="110" height="40" as="geometry" />
        </mxCell>
        <mxCell id="OSJO1DfyJ7Ro2u0NS1iK-263" value="dragonborn" style="rounded=1;whiteSpace=wrap;html=1;arcSize=50;" vertex="1" parent="OSJO1DfyJ7Ro2u0NS1iK-268">
          <mxGeometry x="270" y="202.5" width="80" height="40" as="geometry" />
        </mxCell>
        <mxCell id="OSJO1DfyJ7Ro2u0NS1iK-264" value="metallic scales" style="rounded=1;whiteSpace=wrap;html=1;arcSize=50;" vertex="1" parent="OSJO1DfyJ7Ro2u0NS1iK-268">
          <mxGeometry x="366" y="175.5" width="120" height="40" as="geometry" />
        </mxCell>
        <mxCell id="OSJO1DfyJ7Ro2u0NS1iK-265" value="gold, silver, brass, copper, bronze" style="ellipse;whiteSpace=wrap;html=1;" vertex="1" parent="OSJO1DfyJ7Ro2u0NS1iK-268">
          <mxGeometry x="506" y="170.5" width="200" height="50" as="geometry" />
        </mxCell>
        <mxCell id="OSJO1DfyJ7Ro2u0NS1iK-266" value="chromatic scales" style="rounded=1;whiteSpace=wrap;html=1;arcSize=50;" vertex="1" parent="OSJO1DfyJ7Ro2u0NS1iK-268">
          <mxGeometry x="366" y="235" width="120" height="40" as="geometry" />
        </mxCell>
        <mxCell id="OSJO1DfyJ7Ro2u0NS1iK-267" value="red, green, blue, white, black" style="ellipse;whiteSpace=wrap;html=1;" vertex="1" parent="OSJO1DfyJ7Ro2u0NS1iK-268">
          <mxGeometry x="506" y="230" width="200" height="50" as="geometry" />
        </mxCell>
        <mxCell id="OSJO1DfyJ7Ro2u0NS1iK-270" value="" style="group" vertex="1" connectable="0" parent="1">
          <mxGeometry x="30" y="600" width="520" height="355" as="geometry" />
        </mxCell>
        <mxCell id="OSJO1DfyJ7Ro2u0NS1iK-57" value="Size" style="swimlane;fontStyle=0;childLayout=stackLayout;horizontal=1;startSize=30;horizontalStack=0;resizeParent=1;resizeParentMax=0;resizeLast=0;collapsible=1;marginBottom=0;whiteSpace=wrap;html=1;" vertex="1" parent="OSJO1DfyJ7Ro2u0NS1iK-270">
          <mxGeometry y="120" width="140" height="120" as="geometry" />
        </mxCell>
        <mxCell id="OSJO1DfyJ7Ro2u0NS1iK-58" value="Short" style="text;strokeColor=none;fillColor=none;align=left;verticalAlign=middle;spacingLeft=4;spacingRight=4;overflow=hidden;points=[[0,0.5],[1,0.5]];portConstraint=eastwest;rotatable=0;whiteSpace=wrap;html=1;" vertex="1" parent="OSJO1DfyJ7Ro2u0NS1iK-57">
          <mxGeometry y="30" width="140" height="30" as="geometry" />
        </mxCell>
        <mxCell id="OSJO1DfyJ7Ro2u0NS1iK-59" value="Medium" style="text;strokeColor=none;fillColor=none;align=left;verticalAlign=middle;spacingLeft=4;spacingRight=4;overflow=hidden;points=[[0,0.5],[1,0.5]];portConstraint=eastwest;rotatable=0;whiteSpace=wrap;html=1;" vertex="1" parent="OSJO1DfyJ7Ro2u0NS1iK-57">
          <mxGeometry y="60" width="140" height="30" as="geometry" />
        </mxCell>
        <mxCell id="OSJO1DfyJ7Ro2u0NS1iK-60" value="Tall" style="text;strokeColor=none;fillColor=none;align=left;verticalAlign=middle;spacingLeft=4;spacingRight=4;overflow=hidden;points=[[0,0.5],[1,0.5]];portConstraint=eastwest;rotatable=0;whiteSpace=wrap;html=1;" vertex="1" parent="OSJO1DfyJ7Ro2u0NS1iK-57">
          <mxGeometry y="90" width="140" height="30" as="geometry" />
        </mxCell>
        <mxCell id="OSJO1DfyJ7Ro2u0NS1iK-66" value="" style="endArrow=none;html=1;rounded=0;exitX=1;exitY=0.5;exitDx=0;exitDy=0;" edge="1" parent="OSJO1DfyJ7Ro2u0NS1iK-270" source="OSJO1DfyJ7Ro2u0NS1iK-58" target="OSJO1DfyJ7Ro2u0NS1iK-67">
          <mxGeometry width="50" height="50" relative="1" as="geometry">
            <mxPoint x="370" y="30" as="sourcePoint" />
            <mxPoint x="240" y="10" as="targetPoint" />
          </mxGeometry>
        </mxCell>
        <mxCell id="OSJO1DfyJ7Ro2u0NS1iK-67" value="Short Races" style="swimlane;fontStyle=0;childLayout=stackLayout;horizontal=1;startSize=30;horizontalStack=0;resizeParent=1;resizeParentMax=0;resizeLast=0;collapsible=1;marginBottom=0;whiteSpace=wrap;html=1;" vertex="1" parent="OSJO1DfyJ7Ro2u0NS1iK-270">
          <mxGeometry x="210" width="140" height="150" as="geometry" />
        </mxCell>
        <mxCell id="OSJO1DfyJ7Ro2u0NS1iK-68" value="Halfling" style="text;strokeColor=none;fillColor=none;align=left;verticalAlign=middle;spacingLeft=4;spacingRight=4;overflow=hidden;points=[[0,0.5],[1,0.5]];portConstraint=eastwest;rotatable=0;whiteSpace=wrap;html=1;" vertex="1" parent="OSJO1DfyJ7Ro2u0NS1iK-67">
          <mxGeometry y="30" width="140" height="30" as="geometry" />
        </mxCell>
        <mxCell id="OSJO1DfyJ7Ro2u0NS1iK-69" value="Goblin" style="text;strokeColor=none;fillColor=none;align=left;verticalAlign=middle;spacingLeft=4;spacingRight=4;overflow=hidden;points=[[0,0.5],[1,0.5]];portConstraint=eastwest;rotatable=0;whiteSpace=wrap;html=1;" vertex="1" parent="OSJO1DfyJ7Ro2u0NS1iK-67">
          <mxGeometry y="60" width="140" height="30" as="geometry" />
        </mxCell>
        <mxCell id="OSJO1DfyJ7Ro2u0NS1iK-70" value="Gnome" style="text;strokeColor=none;fillColor=none;align=left;verticalAlign=middle;spacingLeft=4;spacingRight=4;overflow=hidden;points=[[0,0.5],[1,0.5]];portConstraint=eastwest;rotatable=0;whiteSpace=wrap;html=1;" vertex="1" parent="OSJO1DfyJ7Ro2u0NS1iK-67">
          <mxGeometry y="90" width="140" height="30" as="geometry" />
        </mxCell>
        <mxCell id="OSJO1DfyJ7Ro2u0NS1iK-77" value="Dwarf" style="text;strokeColor=none;fillColor=none;align=left;verticalAlign=middle;spacingLeft=4;spacingRight=4;overflow=hidden;points=[[0,0.5],[1,0.5]];portConstraint=eastwest;rotatable=0;whiteSpace=wrap;html=1;" vertex="1" parent="OSJO1DfyJ7Ro2u0NS1iK-67">
          <mxGeometry y="120" width="140" height="30" as="geometry" />
        </mxCell>
        <mxCell id="OSJO1DfyJ7Ro2u0NS1iK-72" value="" style="endArrow=none;html=1;rounded=0;exitX=1;exitY=0.5;exitDx=0;exitDy=0;" edge="1" parent="OSJO1DfyJ7Ro2u0NS1iK-270" source="OSJO1DfyJ7Ro2u0NS1iK-59" target="OSJO1DfyJ7Ro2u0NS1iK-73">
          <mxGeometry width="50" height="50" relative="1" as="geometry">
            <mxPoint x="370" y="30" as="sourcePoint" />
            <mxPoint x="210" y="95" as="targetPoint" />
          </mxGeometry>
        </mxCell>
        <mxCell id="OSJO1DfyJ7Ro2u0NS1iK-73" value="Medium Races" style="swimlane;fontStyle=0;childLayout=stackLayout;horizontal=1;startSize=30;horizontalStack=0;resizeParent=1;resizeParentMax=0;resizeLast=0;collapsible=1;marginBottom=0;whiteSpace=wrap;html=1;" vertex="1" parent="OSJO1DfyJ7Ro2u0NS1iK-270">
          <mxGeometry x="380" y="90" width="140" height="210" as="geometry" />
        </mxCell>
        <mxCell id="OSJO1DfyJ7Ro2u0NS1iK-74" value="Human" style="text;strokeColor=none;fillColor=none;align=left;verticalAlign=middle;spacingLeft=4;spacingRight=4;overflow=hidden;points=[[0,0.5],[1,0.5]];portConstraint=eastwest;rotatable=0;whiteSpace=wrap;html=1;" vertex="1" parent="OSJO1DfyJ7Ro2u0NS1iK-73">
          <mxGeometry y="30" width="140" height="30" as="geometry" />
        </mxCell>
        <mxCell id="OSJO1DfyJ7Ro2u0NS1iK-75" value="Elf" style="text;strokeColor=none;fillColor=none;align=left;verticalAlign=middle;spacingLeft=4;spacingRight=4;overflow=hidden;points=[[0,0.5],[1,0.5]];portConstraint=eastwest;rotatable=0;whiteSpace=wrap;html=1;" vertex="1" parent="OSJO1DfyJ7Ro2u0NS1iK-73">
          <mxGeometry y="60" width="140" height="30" as="geometry" />
        </mxCell>
        <mxCell id="OSJO1DfyJ7Ro2u0NS1iK-76" value="Half-elf" style="text;strokeColor=none;fillColor=none;align=left;verticalAlign=middle;spacingLeft=4;spacingRight=4;overflow=hidden;points=[[0,0.5],[1,0.5]];portConstraint=eastwest;rotatable=0;whiteSpace=wrap;html=1;" vertex="1" parent="OSJO1DfyJ7Ro2u0NS1iK-73">
          <mxGeometry y="90" width="140" height="30" as="geometry" />
        </mxCell>
        <mxCell id="OSJO1DfyJ7Ro2u0NS1iK-78" value="Aasimar" style="text;strokeColor=none;fillColor=none;align=left;verticalAlign=middle;spacingLeft=4;spacingRight=4;overflow=hidden;points=[[0,0.5],[1,0.5]];portConstraint=eastwest;rotatable=0;whiteSpace=wrap;html=1;" vertex="1" parent="OSJO1DfyJ7Ro2u0NS1iK-73">
          <mxGeometry y="120" width="140" height="30" as="geometry" />
        </mxCell>
        <mxCell id="OSJO1DfyJ7Ro2u0NS1iK-81" value="Tiefling" style="text;strokeColor=none;fillColor=none;align=left;verticalAlign=middle;spacingLeft=4;spacingRight=4;overflow=hidden;points=[[0,0.5],[1,0.5]];portConstraint=eastwest;rotatable=0;whiteSpace=wrap;html=1;" vertex="1" parent="OSJO1DfyJ7Ro2u0NS1iK-73">
          <mxGeometry y="150" width="140" height="30" as="geometry" />
        </mxCell>
        <mxCell id="OSJO1DfyJ7Ro2u0NS1iK-87" value="Half-orc" style="text;strokeColor=none;fillColor=none;align=left;verticalAlign=middle;spacingLeft=4;spacingRight=4;overflow=hidden;points=[[0,0.5],[1,0.5]];portConstraint=eastwest;rotatable=0;whiteSpace=wrap;html=1;" vertex="1" parent="OSJO1DfyJ7Ro2u0NS1iK-73">
          <mxGeometry y="180" width="140" height="30" as="geometry" />
        </mxCell>
        <mxCell id="OSJO1DfyJ7Ro2u0NS1iK-82" value="" style="endArrow=none;html=1;rounded=0;exitX=1;exitY=0.5;exitDx=0;exitDy=0;" edge="1" parent="OSJO1DfyJ7Ro2u0NS1iK-270" source="OSJO1DfyJ7Ro2u0NS1iK-60" target="OSJO1DfyJ7Ro2u0NS1iK-83">
          <mxGeometry width="50" height="50" relative="1" as="geometry">
            <mxPoint x="370" y="240" as="sourcePoint" />
            <mxPoint x="180" y="290" as="targetPoint" />
          </mxGeometry>
        </mxCell>
        <mxCell id="OSJO1DfyJ7Ro2u0NS1iK-83" value="Tall Races" style="swimlane;fontStyle=0;childLayout=stackLayout;horizontal=1;startSize=30;horizontalStack=0;resizeParent=1;resizeParentMax=0;resizeLast=0;collapsible=1;marginBottom=0;whiteSpace=wrap;html=1;" vertex="1" parent="OSJO1DfyJ7Ro2u0NS1iK-270">
          <mxGeometry x="210" y="235" width="140" height="120" as="geometry" />
        </mxCell>
        <mxCell id="OSJO1DfyJ7Ro2u0NS1iK-84" value="Firbolg&lt;span style=&quot;white-space: pre;&quot;&gt;	&lt;/span&gt;" style="text;strokeColor=none;fillColor=none;align=left;verticalAlign=middle;spacingLeft=4;spacingRight=4;overflow=hidden;points=[[0,0.5],[1,0.5]];portConstraint=eastwest;rotatable=0;whiteSpace=wrap;html=1;" vertex="1" parent="OSJO1DfyJ7Ro2u0NS1iK-83">
          <mxGeometry y="30" width="140" height="30" as="geometry" />
        </mxCell>
        <mxCell id="OSJO1DfyJ7Ro2u0NS1iK-86" value="Goliath" style="text;strokeColor=none;fillColor=none;align=left;verticalAlign=middle;spacingLeft=4;spacingRight=4;overflow=hidden;points=[[0,0.5],[1,0.5]];portConstraint=eastwest;rotatable=0;whiteSpace=wrap;html=1;" vertex="1" parent="OSJO1DfyJ7Ro2u0NS1iK-83">
          <mxGeometry y="60" width="140" height="30" as="geometry" />
        </mxCell>
        <mxCell id="OSJO1DfyJ7Ro2u0NS1iK-90" value="Dragonborn" style="text;strokeColor=none;fillColor=none;align=left;verticalAlign=middle;spacingLeft=4;spacingRight=4;overflow=hidden;points=[[0,0.5],[1,0.5]];portConstraint=eastwest;rotatable=0;whiteSpace=wrap;html=1;" vertex="1" parent="OSJO1DfyJ7Ro2u0NS1iK-83">
          <mxGeometry y="90" width="140" height="30" as="geometry" />
        </mxCell>
      </root>
    </mxGraphModel>
  </diagram>
</mxfile>
